Coordinates
version=1
nRows=7
nColumns=40
inDegrees=yes

Units are S.I. units (second, meters, Newtons, ...)
If the header above contains a line with 'inDegrees', this indicates whether rotational values are in degrees (yes) or radians (no).

endheader
time	pelvis_tilt	pelvis_list	pelvis_rotation	pelvis_tx	pelvis_ty	pelvis_tz	hip_flexion_r	hip_adduction_r	hip_rotation_r	knee_angle_r	knee_angle_r_beta	ankle_angle_r	subtalar_angle_r	mtp_angle_r	hip_flexion_l	hip_adduction_l	hip_rotation_l	knee_angle_l	knee_angle_l_beta	ankle_angle_l	subtalar_angle_l	mtp_angle_l	lumbar_extension	lumbar_bending	lumbar_rotation	arm_flex_r	arm_add_r	arm_rot_r	elbow_flex_r	pro_sup_r	wrist_flex_r	wrist_dev_r	arm_flex_l	arm_add_l	arm_rot_l	elbow_flex_l	pro_sup_l	wrist_flex_l	wrist_dev_l
      4.47500000	    -31.31832350	     -3.02884701	     -0.73421507	     -0.44896289	      0.71310879	     -0.94169652	     81.54072036	    -11.97337287	      0.49931610	     87.99484492	      1.53579977	     36.25353209	      0.00000000	      0.00000000	     85.13242676	    -18.41273250	      9.94172791	     86.43483681	      1.50857249	     33.30085149	      0.00000000	      0.00000000	    -16.70496085	      2.94478025	      6.15293567	      6.65773279	    -54.81436025	     70.89828918	     92.23847549	     85.80275644	      0.00000000	      0.00000000	    -13.42564026	    -46.30580389	     39.89408866	     95.73710757	     87.52637051	      0.00000000	      0.00000000
      4.48000000	    -31.01370858	     -2.95539069	     -0.77083044	     -0.44724380	      0.71542107	     -0.94176738	     80.92975443	    -11.90314413	      0.57855216	     87.69428378	      1.53055399	     36.25768381	      0.00000000	      0.00000000	     84.41660943	    -18.35314773	      9.89873107	     86.13498923	      1.50333916	     33.35588517	      0.00000000	      0.00000000	    -16.71672777	      2.88059887	      6.12222965	      6.74877235	    -54.66452802	     71.01274399	     92.07745621	     85.86740661	      0.00000000	      0.00000000	    -13.27967353	    -46.20698558	     39.99222955	     95.52500350	     87.49279160	      0.00000000	      0.00000000
      4.48500000	    -30.87306818	     -2.87318915	     -0.71487838	     -0.44607908	      0.71729622	     -0.94215892	     80.55697239	    -11.91845245	      0.70043622	     87.43066628	      1.52595299	     36.30110276	      0.00000000	      0.00000000	     83.95589408	    -18.16411066	      9.83247412	     85.89609141	      1.49916961	     33.44853526	      0.00000000	      0.00000000	    -16.48540863	      2.85855272	      6.02243688	      6.87943250	    -54.62370645	     71.11190510	     91.94915228	     85.92702093	      0.00000000	      0.00000000	    -13.05029385	    -46.12853584	     40.08780605	     95.39723725	     87.47131805	      0.00000000	      0.00000000
      4.49000000	    -30.52086377	     -2.76290467	     -0.69389103	     -0.44420426	      0.71990035	     -0.94236684	     79.88610795	    -11.88944144	      0.82774950	     87.10913003	      1.52034113	     36.32777886	      0.00000000	      0.00000000	     83.13254389	    -17.98749271	      9.79117092	     85.55216928	      1.49316704	     33.53629947	      0.00000000	      0.00000000	    -16.47614472	      2.76976084	      5.97182309	      7.01454103	    -54.46112443	     71.26402034	     91.70173018	     85.99386288	      0.00000000	      0.00000000	    -12.80264765	    -46.05883095	     40.24601379	     95.15351253	     87.45438078	      0.00000000	      0.00000000
      4.49500000	    -30.20331428	     -2.52261608	     -0.64092287	     -0.44263930	      0.72229503	     -0.94287533	     79.33709540	    -11.98175580	      1.07970437	     86.86979604	      1.51616396	     36.47555466	      0.00000000	      0.00000000	     82.33954338	    -17.77272009	      9.52337134	     85.26769248	      1.48820198	     33.88368600	      0.00000000	      0.00000000	    -16.34670968	      2.58174062	      5.84369019	      7.40146643	    -54.35115184	     71.75628827	     91.42267405	     86.15112661	      0.00000000	      0.00000000	    -12.25374770	    -46.10059831	     40.92271442	     94.86047012	     87.43374817	      0.00000000	      0.00000000
      4.50000000	    -30.13212439	     -2.57273391	     -0.62517994	     -0.44105825	      0.72449489	     -0.94279780	     78.92800221	    -11.84547891	      1.10768248	     86.53047454	      1.51024168	     36.40683154	      0.00000000	      0.00000000	     81.94215955	    -17.67799258	      9.62960702	     84.93341995	      1.48236782	     33.80372528	      0.00000000	      0.00000000	    -15.97171114	      2.64929183	      5.80841413	      7.36821269	    -54.23242735	     71.81399417	     91.39771672	     86.16878716	      0.00000000	      0.00000000	    -12.23401232	    -46.09377144	     40.98510134	     94.85028835	     87.43115375	      0.00000000	      0.00000000
      4.50500000	    -30.04255679	     -2.58639489	     -0.64535719	     -0.43972186	      0.72692158	     -0.94279668	     78.49148660	    -11.70237166	      1.15386267	     86.09419034	      1.50262709	     36.33537385	      0.00000000	      0.00000000	     81.48897379	    -17.54455833	      9.77562161	     84.54307245	      1.47555497	     33.74075894	      0.00000000	      0.00000000	    -15.60777128	      2.68581932	      5.78916540	      7.41560177	    -54.15645175	     71.84817508	     91.31233813	     86.17942365	      0.00000000	      0.00000000	    -12.12341161	    -46.07058408	     41.03735874	     94.78914656	     87.42597153	      0.00000000	      0.00000000
